<svg xmlns="http://www.w3.org/2000/svg" viewBox="0 0 100 100" width="100" height="100">
  <rect width="100" height="100" rx="16" fill="#0A0A0A"/>
  
  <!-- Left parenthesis / C curve -->
  <path d="M 45 15 C 22 20, 14 34, 14 50 C 14 66, 22 80, 45 85"
        fill="none" stroke="#00C896" stroke-width="5" stroke-linecap="round"/>
  
  <!-- Right parenthesis / C curve (mirrored) -->
  <path d="M 55 15 C 78 20, 86 34, 86 50 C 86 66, 78 80, 55 85"
        fill="none" stroke="#00C896" stroke-width="5" stroke-linecap="round"/>
  
  <!-- Dollar vertical bar -->
  <line x1="50" y1="20" x2="50" y2="80" stroke="#00C896" stroke-width="5" stroke-linecap="round"/>
  
  <!-- S-curve top half -->
  <path d="M 63 36 C 63 29, 57 26, 50 26 C 43 26, 37 29, 37 36 C 37 43, 44 46, 50 47"
        fill="none" stroke="#00C896" stroke-width="5" stroke-linecap="round"/>
  
  <!-- S-curve bottom half -->
  <path d="M 37 63 C 37 70, 43 74, 50 74 C 57 74, 63 70, 63 63 C 63 56, 56 53, 50 52"
        fill="none" stroke="#00C896" stroke-width="5" stroke-linecap="round"/>
</svg>
